<?xml version="1.0" encoding="UTF-8" standalone="no"?>
<svg
   xml:space="preserve"
   width="444"
   height="444"
   viewBox="0 0 117.475 117.475"
   version="1.1"
   id="svg8"
   xmlns="http://www.w3.org/2000/svg"
   xmlns:svg="http://www.w3.org/2000/svg"><defs
   id="defs8" />
  
  
  
  
  <g
   id="g9"
   transform="matrix(0.81868963,0,0,0.69891184,-8.7133224,-11.31869)"><path
     d="m 79.459,136.63 c 5.347,-11.753 9.84,-18.158 19.801,-26.622 -1.525,1.144 -2.777,1.463 -5.695,2.07 -7.262,1.51 -11.31,3.858 -14.174,8.22 -1.898,2.892 -3.47,7.612 -3.762,11.3 -0.075,0.947 -0.014,1.059 0.709,1.29 1.399,0.448 2.396,1.644 3.12,3.742 z"
     style="fill:#ff8c00;fill-opacity:1"
     transform="translate(-52.978,-66.444)"
     id="path1" /><path
     d="m 118.063,141.034 c -1.824,1.02 -8.752,5.083 -13.25,10.354 0.029,0.027 0.016,0.123 -0.047,0.301 -0.989,3.116 0.32,5.956 2.131,8.478 0.946,1.268 1.72,2.547 1.72,2.842 0,0.505 0.028,0.51 0.49,0.092 1.443,-1.306 2.591,-4.725 3.476,-10.354 1.037,-6.587 2.632,-10.026 5.48,-11.713 z m 30.493,-4.864 c -1.374,0.065 -4.483,0.234 -7.847,0.558 0.025,0.08 -0.536,0.282 -1.717,0.605 -4.397,1.203 -5.36,1.946 -7.258,5.594 -1.329,2.554 -2.593,3.826 -4.62,4.651 -0.854,0.348 -1.448,0.695 -1.32,0.772 0.129,0.077 0.948,0.287 1.82,0.467 2.825,0.581 6.826,-0.054 10.183,-1.617 3.917,-1.823 7.833,-5.745 9.82,-9.836 0.391,-0.804 0.55,-1.092 0.94,-1.195 z m 7.896,-0.13 c -0.001,0 -3.727,0.345 -5.647,0.466 h 0.09 l -1.522,1.529 c -2.36,2.37 -2.953,3.695 -3.203,7.15 -0.234,3.236 -0.787,4.7 -2.236,5.92 -0.463,0.388 -0.749,0.799 -0.636,0.912 0.314,0.313 2.866,-0.305 4.596,-1.114 2.093,-0.977 5.184,-4.13 6.513,-6.644 0.977,-1.846 2.026,-5.65 2.038,-7.39 z"
     style="fill:#ff00ff;fill-opacity:1"
     transform="translate(-52.978,-66.444)"
     id="path2" /><path
     d="m 116.677,83.14 c -4.227,0.012 -8.696,0.484 -9.544,1.008 -0.15,0.093 0.299,0.527 0.998,0.964 2.01,1.26 2.965,2.318 3.394,3.761 1.426,4.803 -0.938,9.738 -8.04,16.788 -0.887,0.88 -1.6,1.58 -2.222,2.146 0.507,-0.42 1.027,-0.846 1.561,-1.279 16.053,-12.992 28.498,-12.73 44.148,-13.194 l -3.704,-2.19 c -9.984,-5.901 -17.064,-8.033 -26.59,-8.005 z"
     style="opacity:1;fill:#32cd32;fill-opacity:1;stroke:#90ee90;stroke-opacity:1"
     transform="translate(-52.978,-66.444)"
     id="path3" /><path
     d="m 147.137,94.66 c -15.65,0.464 -28.095,0.202 -44.148,13.195 -11.95,9.672 -16.759,16.128 -22.579,28.922 -0.215,0.473 0.29,3.938 0.307,8.746 0.025,7.167 0.085,8.202 0.618,10.65 1.916,8.79 5.17,15.014 10.753,20.572 4.335,4.315 8.35,6.855 13.376,8.464 5.152,1.648 6.324,2.099 8.443,3.249 1.224,0.664 3.01,1.94 3.969,2.835 6.638,6.198 11.225,8.756 18.022,10.053 2.467,0.47 7.935,0.373 9.225,-0.166 l 0.896,-0.374 -2.054,-1.015 c -1.48,-0.732 -2.738,-1.638 -4,-2.957 -1.262,-1.32 -2.53,-3.051 -4.028,-5.433 -1.386,-2.203 -2.595,-3.854 -3.847,-5.132 -2.087,-2.129 -4.297,-3.221 -7.661,-4.103 a 9.811,9.811 0 0 1 -1.144,-0.356 1.242,1.242 0 0 1 -0.133,-0.063 0.244,0.244 0 0 1 -0.053,-0.038 l -0.005,-0.006 h -10e-4 c 0,-0.002 -0.002,-0.003 -0.003,-0.004 l -0.002,-0.002 -0.002,-0.005 v -0.011 l 0.003,-0.005 0.001,-10e-4 h 10e-4 v -0.002 l 0.001,-0.001 a 0.067,0.067 0 0 1 0.028,-0.012 0.376,0.376 0 0 1 0.08,-0.008 c 2.388,-0.052 6.846,-1.977 8.944,-3.864 2.001,-1.8 3.043,-3.379 5.507,-8.344 1.957,-3.945 2.458,-4.734 4.008,-6.305 1.09,-1.105 2.305,-2.04 3.16,-2.43 0.382,-0.173 0.73,-0.35 0.982,-0.496 0.188,-0.109 0.323,-0.2 0.379,-0.258 l 0.012,-0.015 0.01,-0.012 a 0.042,0.042 0 0 0 0.006,-0.019 v -0.001 c 0,-0.012 0,-0.023 -0.005,-0.034 a 0.16,0.16 0 0 0 -0.037,-0.064 0.35,0.35 0 0 0 -0.074,-0.058 c -0.891,-0.555 -6.691,-0.468 -9.383,0.213 -5.228,1.322 -8.078,3.044 -13.197,7.974 -2.006,1.93 -4.249,3.835 -4.985,4.231 -3.797,2.046 -9.346,1.961 -13.627,-0.208 -3.408,-1.727 -6.22,-5.555 -6.848,-9.388 a 8.404,8.404 0 0 1 -0.09,-0.76 c -0.241,-1.987 0.046,-3.178 1.341,-5.635 0.99,-1.878 2.463,-3.969 2.62,-3.816 5.216,-6.113 13.702,-10.602 13.702,-10.602 2.793,-1.416 6.338,-2.627 10.634,-3.632 l 0.268,-0.083 c 1.6,-0.488 3.813,-0.875 6.148,-1.178 2.25,-0.373 3.442,-0.502 3.476,-0.39 3.364,-0.324 6.473,-0.493 7.847,-0.559 0.194,-0.05 0.444,-0.056 0.807,-0.056 h 1.049 c 1.92,-0.121 5.645,-0.466 5.646,-0.467 l 2.315,-0.178 c 1.274,-0.098 2.97,-0.286 3.77,-0.418 l 0.01,-0.002 c -7.085,-3.806 -9.698,-10.808 -11.948,-11.042 -1.28,-0.133 0.562,-2.98 0.307,-3.513 -1.334,-2.78 1.768,-17.65 7.389,-17.161 h 0.001 l 0.001,0.001 v 0.002 c 0.007,0.052 -0.44,0.57 -1.023,1.187 -4.527,5.24 -5.682,9.995 -3.51,16.792 2.099,6.723 6.2,9.12 6.371,9.594 1.672,1.408 3.804,2.67 5.628,3.602 2.566,-0.437 4.09,-0.72 5.687,-1.048 3.537,-0.727 10.313,-2.776 13.267,-4.011 1.407,-0.589 3.75,-1.54 5.205,-2.114 2.288,-0.901 2.843,-1.248 4.101,-2.564 2.882,-3.014 5.01,-7.293 5.502,-10.034 l 0.056,-0.32 -2.984,0.124 2.01,-2.42 a 154.002,154.002 0 0 0 -6.719,-3.738 c -1.973,-1.024 -4.176,-2.192 -4.894,-2.596 l -2.268,-1.279 c -6.184,-3.494 -9.07,-4.78 -14.78,-6.58 -4.212,-1.33 -10.055,-2.431 -14.816,-2.792 z m 30.746,13.83 a 3.121,3.121 0 0 1 3.12,3.12 c 0,1.97 -1.672,3.12 -3.12,3.12 -3.738,0 -4.216,-5.442 -0.629,-6.177 a 3.1,3.1 0 0 1 0.629,-0.064 z"
     style="fill:#00bfff;fill-opacity:1;stroke:#add8e6;stroke-width:1;stroke-linejoin:round;stroke-dasharray:none;stroke-opacity:1"
     transform="translate(-52.978,-66.444)"
     id="path4" /><path
     d="m 177.66,109.806 a 1.576,1.576 0 1 0 0.002,3.151 1.576,1.576 0 0 0 -0.003,-3.151 z"
     style="fill:#000000;stroke-width:0.504778"
     transform="translate(-52.978,-66.444)"
     id="path5" /></g>
  
  
  <g
   id="g8"
   transform="translate(-77.14246,-12.471096)"><path
     d="m 204.736,165.775 -10.939,0.044 -10.938,0.044 -0.044,14.8 -0.044,14.798 h 8.925 v -10.638 h 5.558 c 4.292,0 5.575,-0.049 5.633,-0.214 0.041,-0.118 0.04,-1.701 -0.003,-3.518 l -0.077,-3.303 h -11.112 v -4.804 h 13.04 v -3.604 z"
     style="fill:#fd7e14;fill-opacity:1;stroke:#fff8dc;stroke-width:1.248;stroke-dasharray:none;stroke-opacity:1"
     transform="translate(-52.978,-66.444)"
     id="path6" /><path
     d="m 178.312,165.772 -4.414,0.046 -4.415,0.045 -0.83,1.545 a 978.42,978.42 0 0 1 -6.092,11.033 c -0.707,1.256 -1.342,2.22 -1.411,2.145 -0.16,-0.177 -4.84,-8.582 -6.717,-12.063 L 153,165.863 h -8.747 l -0.044,14.8 -0.044,14.798 h 8.753 l 0.002,-7.249 0.003,-7.25 0.443,0.773 c 0.547,0.953 3.704,6.872 4.508,8.45 l 0.59,1.158 h 5.568 l 2.713,-5.142 c 1.493,-2.828 2.74,-5.116 2.771,-5.084 0.032,0.032 0.054,3.272 0.05,7.201 l -0.008,7.143 h 8.755 v -14.844 z"
     style="fill:#20c997;fill-opacity:1;stroke:#b0e0e6;stroke-width:1.248;stroke-dasharray:none;stroke-opacity:1"
     transform="translate(-52.978,-66.444)"
     id="path7" /><path
     d="m 220.149,165.144 c -4.578,0.243 -8.472,2.187 -11.189,5.623 -2.19,2.768 -3.167,5.444 -3.318,9.08 -0.104,2.496 0.183,4.28 1.021,6.349 0.702,1.73 2.479,4.391 3.645,5.457 2.126,1.943 4.881,3.38 7.468,3.897 1.719,0.343 4.958,0.307 6.811,-0.076 1.73,-0.356 4.201,-1.445 5.629,-2.478 1.187,-0.86 3.348,-3.035 3.336,-3.359 -0.005,-0.147 -0.516,-0.691 -1.135,-1.21 a 123.73,123.73 0 0 1 -2.52,-2.2 c -2.054,-1.85 -1.95,-1.833 -3.234,-0.512 -1.532,1.577 -2.935,2.24 -4.936,2.336 -1.775,0.085 -2.955,-0.202 -4.193,-1.022 -3.009,-1.993 -4.09,-7.193 -2.214,-10.641 0.596,-1.096 2.058,-2.461 3.19,-2.98 1.845,-0.844 4.617,-0.68 6.429,0.382 0.433,0.254 1.218,0.91 1.745,1.457 0.527,0.548 1.021,0.996 1.1,0.997 0.077,0 1.345,-1.023 2.817,-2.273 1.472,-1.25 2.749,-2.322 2.837,-2.381 0.303,-0.203 -0.082,-0.866 -1.177,-2.027 -2.585,-2.74 -5.927,-4.201 -10.11,-4.419 a 19.065,19.065 0 0 0 -2.002,0 z"
     style="fill:#6f42c1;fill-opacity:1;stroke:#e6e6fa;stroke-width:1.248;stroke-dasharray:none;stroke-opacity:1"
     transform="translate(-52.978,-66.444)"
     id="path8" /></g>
<g
   style="fill:#ffffff;fill-opacity:1;stroke:currentColor;stroke-width:2;stroke-linecap:round;stroke-linejoin:round"
   id="g1"
   transform="matrix(0.52562194,0,0,0.57363537,85.129245,94.632586)"><path
     d="m 9.671,4.136 a 2.34,2.34 0 0 1 4.659,0 2.34,2.34 0 0 0 3.319,1.915 2.34,2.34 0 0 1 2.33,4.033 2.34,2.34 0 0 0 0,3.831 2.34,2.34 0 0 1 -2.33,4.033 2.34,2.34 0 0 0 -3.319,1.915 2.34,2.34 0 0 1 -4.659,0 2.34,2.34 0 0 0 -3.32,-1.915 2.34,2.34 0 0 1 -2.33,-4.033 2.34,2.34 0 0 0 0,-3.831 A 2.34,2.34 0 0 1 6.35,6.051 2.34,2.34 0 0 0 9.669,4.136"
     id="path1-7"
     style="fill:#ffffff;fill-opacity:1" /><circle
     cx="12"
     cy="12"
     r="3"
     id="circle1"
     style="fill:#ffffff;fill-opacity:1" /></g></svg>
