<?xml version="1.0" encoding="utf-8"?>
<!-- Generator: Adobe Illustrator 15.0.0, SVG Export Plug-In . SVG Version: 6.00 Build 0)  -->
<!DOCTYPE svg PUBLIC "-//W3C//DTD SVG 1.1//EN" "http://www.w3.org/Graphics/SVG/1.1/DTD/svg11.dtd">
<svg version="1.1" id="Layer_1" xmlns="http://www.w3.org/2000/svg" xmlns:xlink="http://www.w3.org/1999/xlink" x="0px" y="0px"
	 width="500px" height="500px" viewBox="0 0 500 500" enable-background="new 0 0 500 500" xml:space="preserve">
<g>
	<polygon fill="#010101" points="60.808,250 60.808,298.268 117.941,250 60.808,201.733 	"/>
	<path fill="#010101" d="M355.49,190.469c-11.99,16.815-19.072,37.353-19.072,59.531c0,22.178,7.082,42.717,19.072,59.531
		C407.092,287.244,439.191,250,439.191,250S407.092,212.756,355.49,190.469z M367.664,238.984c-5.576,0-10.098-4.519-10.098-10.097
		c0-5.578,4.521-10.097,10.098-10.097c5.574,0,10.096,4.519,10.096,10.097C377.76,234.465,373.238,238.984,367.664,238.984z"/>
	<path fill="#010101" d="M348.506,189.052c-58.66-24.18-141.38-28.237-230.564,60.948c89.184,89.186,171.904,85.128,230.564,60.947
		c-12.123-17.273-19.268-38.284-19.268-60.947S336.383,206.326,348.506,189.052z M224.585,263.635c-0.26,0.137-0.54,0.2-0.82,0.2
		c-0.652,0-1.276-0.354-1.599-0.976c-0.449-0.879-0.105-1.963,0.778-2.416c7.201-3.709,10.924-7.484,10.756-10.92
		c-0.231-4.757-7.727-8.754-10.602-9.894c-0.919-0.365-1.367-1.409-1.003-2.332c0.364-0.922,1.409-1.364,2.328-1.006
		c0.512,0.204,12.474,5.042,12.859,13.056C237.529,254.365,233.259,259.172,224.585,263.635z M272.842,298.066
		c-0.26,0.137-0.541,0.199-0.82,0.199c-0.651,0-1.276-0.354-1.592-0.975c-0.457-0.88-0.113-1.963,0.771-2.416
		c7.207-3.709,10.924-7.484,10.756-10.921c-0.232-4.757-7.727-8.754-10.596-9.894c-0.926-0.365-1.373-1.41-1.01-2.332
		c0.364-0.922,1.409-1.363,2.336-1.006c0.504,0.202,12.467,5.041,12.858,13.057C285.793,288.797,281.516,293.604,272.842,298.066z
		 M272.842,229.199c-0.26,0.137-0.541,0.2-0.82,0.2c-0.651,0-1.276-0.354-1.592-0.975c-0.457-0.88-0.113-1.963,0.771-2.416
		c7.207-3.709,10.924-7.485,10.756-10.921c-0.232-4.758-7.727-8.754-10.596-9.894c-0.926-0.365-1.373-1.409-1.01-2.332
		c0.364-0.922,1.409-1.364,2.336-1.006c0.504,0.204,12.467,5.042,12.858,13.057C285.793,219.929,281.516,224.736,272.842,229.199z"
		/>
</g>
</svg>
