<svg xmlns="http://www.w3.org/2000/svg" xml:space="preserve" viewBox="0 0 157.08774 158.95692"><g fill="#69be42"><path d="M83.803539 158.670804c-1.1592-.43322-2.7004-1.36509-3.1465-1.90252-.2522-.30394-.9676-.39258-3.1386-.38886-2.6858.005-2.8645.0405-3.987102.80112-1.6786 1.13732-3.7117 1.66632-5.8164 1.51337-2.5058-.1821-4.2424-1.02522-5.9821-2.90421-1.3973-1.50934-1.5672-1.60671-4.0321-2.31206l-2.573299-.73635-1.3229.52021c-1.0314.40555-1.7603.49511-3.3073.40632-3.5776-.20533-6.1402-1.83255-7.7699-4.93384-.8855-1.68516-1.1572-1.96577-3.0178-3.11657-1.978-1.22347-2.1265-1.26946-4.5581-1.41185-1.8522-.10845-2.8382-.30536-3.7472-.74832-2.7869-1.35811-4.8545-4.03452-5.1692-6.69117-.1471-1.24227-.345-1.57206-2.1027-3.50499-1.8524-2.03704-2.0133-2.14859-3.5527-2.4626-2.9379-.59928-5.2099-2.45425-6.5509-5.34837-.5787-1.24907-.6937-1.88911-.7188-4.00051-.03-2.49983-.037-2.52552-1.3011-4.71015-1.0908-1.8849-1.4551-2.28981-2.5671-2.85331-1.7522-.8879-3.3049-2.50057-4.1436-4.30364-.961-2.06585-1.1113-5.13738-.3494-7.14172l.5375-1.41404-.6575-2.65735c-.6267-2.5328-.7183-2.71203-1.9552-3.82402-1.7962-1.61501-2.6577-3.47619-2.84-6.13577-.1668-2.43294.2803-4.19039 1.527-6.00236.6773-.98445.7813-1.41424.9414-3.88986l.1799-2.78312-.8431-1.17397c-2.7123-3.77689-1.8207-10.03182 1.7923-12.5728.9712-.68303 1.085-.90709 1.7488-3.44234.6938-2.6496.7-2.74209.2705-4.03528-.5056-1.522-.5596-3.95831-.1245-5.60861.6633-2.51594 2.8202-5.02428 5.0536-5.87724 1.0733-.40991 1.3383-.69988 2.6239-2.87143 1.3391-2.26196 1.4252-2.51183 1.3549-3.93151-.1338-2.69977.6849-4.90791 2.5715-6.935094 1.3853-1.48862 3.9015-2.82125 5.3275-2.82157.8173-.00018 1.1957-.26858 3.0777-2.18302 1.8381-1.86977 2.1702-2.34721 2.3159-3.32916.3843-2.59053 2.5006-5.287775 5.1821-6.604755 1.225-.60162 1.8384-.72242 3.8518-.75861 2.3257-.0418 2.4612-.0794 4.6994-1.3058 2.1214-1.16239 2.3549-1.37255 2.9369-2.64391 1.8485-4.03759 6.8509-6.10459 11.2054-4.63012l1.657299.56118 2.5265-.64154c2.3691-.60159 2.6077-.72628 3.8312-2.00234 3.254-3.39391 8.4659-3.90255 12.039202-1.17495 1.1656.88968 1.2115.90025 3.8892.8955 2.5722-.005 2.7693-.0452 3.885-.80113 1.6785-1.13731 3.7116-1.66631 5.8163-1.51336 2.4993.18162 4.2432 1.026 5.9691 2.89017 1.3921 1.50358 1.5458 1.59042 4.1346 2.33548 2.5957.74703 2.7173.75833 3.5124.32646.5981-.32492 1.4753-.44837 3.2048-.45103 2.0324-.003 2.602.0998 3.8884.70283 1.8965.88895 3.5738 2.56245 4.5113 4.50102.6548 1.35397.9469 1.63584 2.9472 2.84406 2.1494 1.2983 2.2843 1.34114 4.2242 1.34114 2.5378 0 4.3526.6549 6.1319 2.212875 1.6158 1.41472 2.6691 3.26963 2.979 5.24622.2089 1.33224.4208 1.68625 2.1508 3.59284 1.7677 1.94817 2.018 2.1281 3.1738 2.28143 2.8204.37413 5.4716 2.47959 6.8654 5.452054.5727 1.22153.6871 1.85884.7122 3.96875.03 2.49754.038 2.52744 1.2928 4.69567 1.1397 1.96902 1.4192 2.26538 2.8624 3.0346 3.8645 2.05974 5.7577 7.19425 4.1819 11.34149l-.5131 1.35036.6739 2.67266c.6392 2.53442.7403 2.73223 1.955 3.82439 1.7792 1.59961 2.6417 3.46954 2.8235 6.12083.1713 2.50013-.2688 4.14318-1.6652 6.21676-.887 1.31712-.9088 1.41369-.9016 3.99907.01 2.52803.044 2.69735.8 3.69704 2.683 3.54637 1.7499 9.96896-1.8173 12.50865-.9485.67536-1.0797.93226-1.752 3.43258-.7134 2.65264-.7186 2.72723-.284 4.03587.5085 1.53077.5638 3.96457.1278 5.61838-.6634 2.51593-2.8202 5.02428-5.0537 5.87724-1.0733.4099-1.3383.69987-2.6239 2.87142-1.3391 2.26196-1.4252 2.51184-1.3548 3.93152.1338 2.69952-.687 4.91374-2.5663 6.92281-1.4233 1.52161-3.2385 2.51633-4.9978 2.7387-1.1297.14279-1.4701.36991-3.4059 2.27207-1.8869 1.85418-2.1702 2.25579-2.3098 3.27402-.3584 2.61495-2.4574 5.32171-5.1534 6.64568-1.2729.62509-1.8579.74169-3.8851.77441-2.3208.0375-2.4502.0734-4.6994 1.30581-2.1302 1.16721-2.3628 1.37632-2.9452 2.64841-1.8581 4.05862-7.0182 6.17692-11.2703 4.62656l-1.5584-.56825-2.5758.66945c-2.4124.62701-2.6524.75248-3.7862 1.97931-1.6971 1.83631-3.751 2.73678-6.4969 2.84831-1.3342.0542-2.4705-.0462-3.0739-.27172zm5.4551-9.46589c15.4707-2.22458 29.4018-9.17041 40.3486-20.11721 11.353-11.35306 18.2452-25.60355 20.1375-41.63705.4045-3.42787.4-11.99818-.01-15.21353-2.1987-17.32432-9.903-32.42885-22.2457-43.613384-10.8528-9.83448-23.4814-15.823375-38.1-18.068255-5.5168-.84718-15.1158-.84756-20.637502-.00081-13.057199 2.00234-24.285299 6.858035-34.473299 14.908255-3.0739 2.42887-8.2797 7.565854-10.7171 10.575324-17.2538 21.30356-20.4786 50.48689-8.2683 74.82378 11.1802 22.2836 33.3757 37.05104 58.485801 38.91277 4.0797.30247 11.2464.0386 15.4781-.56989z"/><path d="m128.353029 74.073094-79.395675 45.83855a50.101606 50.101606 0 0 0 60.892405-1.3162 50.101606 50.101606 0 0 0 18.50327-44.52235z"/><path d="M-32.618225 195.64583h14.026684q4.582423 0 6.855007 2.17944 2.2912112 2.17945 2.2912112 6.20304 0 4.13535-2.4961162 6.46382-2.477489 2.32847-7.581488 2.32847h-4.619679v10.13349h-8.475619zm8.475619 11.64233h2.067679q2.440233 0 3.427503-.83825.98727-.85687.98727-2.17944 0-1.28532-.856876-2.17945-.856875-.89413-3.222598-.89413h-2.402978zm32.6730479 11.15801h-9.6119112l-1.3225691 4.50792H-11.02868l10.26388224-27.30826H8.4373033l10.2638817 27.30826H9.8716388Zm-1.7696348-5.90499-3.017693-9.81681-2.99906534 9.81681zm14.9766999-16.89535h8.456992v27.30826h-8.456992zm14.622773 0h12.536466q3.706919 0 5.979502 1.00589 2.291212 1.0059 3.781431 2.8873 1.490218 1.8814 2.160817 4.37752.670598 2.49612.670598 5.29028 0 4.37752-1.005897 6.79912-.98727 2.40298-2.756905 4.04222-1.769635 1.62061-3.800058 2.16082-2.775533.74511-5.029488.74511H36.36028Zm8.438364 6.1844v14.92082h2.067678q2.645139 0 3.762803-.57746 1.117664-.59609 1.751007-2.04905.633343-1.47159.633343-4.75007 0-4.34026-1.415708-5.94225-1.415708-1.60199-4.694189-1.60199z" aria-label="PAID" font-family="Arial Black" font-size="38.1496" font-weight="900" style="-inkscape-font-specification:&quot;Arial Black, Heavy&quot;" transform="matrix(1.0008508 -.57784145 .4326446 .74936244 -26.456131 -69.021526)"/><path d="M77.466209 29.388488v-.00001a50.101606 50.101606 0 0 1 30.66428 9.657296l-79.395678 45.83906a50.101606 50.101606 0 0 1 18.496029-44.51666l.01499-.0124a50.101606 50.101606 0 0 1 30.220379-10.967286Z"/><path d="m41.779435 147.01146.515078-8.52346 2.240735.1354-.172813 2.85973 6.833622.41296-.169437 2.80403-6.83363-.41297-.172814 2.85974zm1.620482-14.63781.833673-2.68258 3.037889.9441.910971-2.93128-3.037884-.94411.83736-2.69441 8.681349 2.69795-.837354 2.69441-3.511631-1.09133-.910967 2.93129 3.511626 1.09132-.833678 2.68257zm14.842644-15.34719-1.669864 2.72953 1.050366 1.15872-1.498348 2.44918-5.971691-7.6589 1.598662-2.61313 9.537945 1.82953-1.533939 2.50737zm-1.984298-.52333-3.311972-.84851 2.266694 2.5571zm1.023936-10.90319 1.875754-1.83362 5.963324 1.20349-3.515535-3.59631 1.893493-1.850963 6.354829 6.500843-1.893489 1.85097-5.924006-1.1899 3.489518 3.56969-1.889051 1.84664zm11.750025-10.254982 2.438359-1.39486 1.705849 2.982013.850929-4.444613 3.240376-1.853654-1.171585 4.620901 5.814811 3.196217-3.003539 1.718168-3.519977-2.294299-.50515 2.039283 1.102327 1.926996-2.438359 1.39485zm20.826413-8.958861 3.087547-.443143 2.253016 2.777672 1.380833-3.299221 3.069133-.440494-2.748204 5.731974.540911 3.768908-2.78676.399962-.540937-3.76889zm14.069903 3.049277q.21754-2.21557 1.57301-3.328675 1.35549-1.113116 3.55871-.896795 2.25878.221771 3.36137 1.557534 1.10317 1.329588.88868 3.5143-.15572 1.586079-.79262 2.551656-.63011.960026-1.69801 1.428424-1.0611.462808-2.56692.314981-1.53054-.15027-2.48863-.736584-.9519-.585712-1.47161-1.702242-.51967-1.116532-.36396-2.7026zm2.79448.286836q-.13452 1.370067.3128 2.018389.45346.648917 1.32981.734973.90103.08846 1.45233-.449357.55128-.537817.70034-2.056004.12543-1.277495-.33543-1.914694-.45405-.64275-1.33659-.729397-.84549-.08302-1.41651.465327-.571.548343-.70673 1.93076zm18.95333-.409246 2.6343.957547-1.85155 5.093747q-.27542.757651-.76011 1.346855-.47673.585501-1.16811.908208-.68341.319023-1.31121.321767-.87312.006-1.9513-.385989-.62362-.226672-1.33201-.583147-.70256-.354349-1.10472-.790878-.40005-.442336-.64013-1.070652-.23427-.626191-.20148-1.188328.0518-.904899.2806-1.534341l1.85156-5.093733 2.6343.957558-1.89606 5.216129q-.25421.699375-.0137 1.235498.24858.532407.93627.78239.68188.247859 1.20635.003.53244-.248495.79086-.959573z" aria-label="THANK YOU" font-family="Arial Black" font-size="12.7" letter-spacing="2.71198" style="-inkscape-font-specification:&quot;Arial Black, &quot;" transform="translate(-26.456131 -69.021526)"/></g></svg>