<svg height="576" viewBox="0 0 203.2 152.4" width="768" xmlns="http://www.w3.org/2000/svg"><g transform="translate(-52.978 -66.444)"><path d="m79.459 136.63c5.347-11.753 9.84-18.158 19.801-26.622-1.525 1.144-2.777 1.463-5.695 2.07-7.262 1.51-11.31 3.858-14.174 8.22-1.898 2.892-3.47 7.612-3.762 11.3-.075.947-.014 1.059.709 1.29 1.399.448 2.396 1.644 3.12 3.742z" fill="#ff8c00"/><path d="m118.063 141.034c-1.824 1.02-8.752 5.083-13.25 10.354.029.027.016.123-.047.301-.989 3.116.32 5.956 2.131 8.478.946 1.268 1.72 2.547 1.72 2.842 0 .505.028.51.49.092 1.443-1.306 2.591-4.725 3.476-10.354 1.037-6.587 2.632-10.026 5.48-11.713zm30.493-4.864c-1.374.065-4.483.234-7.847.558.025.08-.536.282-1.717.605-4.397 1.203-5.36 1.946-7.258 5.594-1.329 2.554-2.593 3.826-4.62 4.651-.854.348-1.448.695-1.32.772.129.077.948.287 1.82.467 2.825.581 6.826-.054 10.183-1.617 3.917-1.823 7.833-5.745 9.82-9.836.391-.804.55-1.092.94-1.195zm7.896-.13c-.001 0-3.727.345-5.647.466h.09l-1.522 1.529c-2.36 2.37-2.953 3.695-3.203 7.15-.234 3.236-.787 4.7-2.236 5.92-.463.388-.749.799-.636.912.314.313 2.866-.305 4.596-1.114 2.093-.977 5.184-4.13 6.513-6.644.977-1.846 2.026-5.65 2.038-7.39z" fill="#f0f"/><path d="m116.677 83.14c-4.227.012-8.696.484-9.544 1.008-.15.093.299.527.998.964 2.01 1.26 2.965 2.318 3.394 3.761 1.426 4.803-.938 9.738-8.04 16.788-.887.88-1.6 1.58-2.222 2.146.507-.42 1.027-.846 1.561-1.279 16.053-12.992 28.498-12.73 44.148-13.194l-3.704-2.19c-9.984-5.901-17.064-8.033-26.59-8.005z" fill="#32cd32" stroke="#90ee90"/><path d="m147.137 94.66c-15.65.464-28.095.202-44.148 13.195-11.95 9.672-16.759 16.128-22.579 28.922-.215.473.29 3.938.307 8.746.025 7.167.085 8.202.618 10.65 1.916 8.79 5.17 15.014 10.753 20.572 4.335 4.315 8.35 6.855 13.376 8.464 5.152 1.648 6.324 2.099 8.443 3.249 1.224.664 3.01 1.94 3.969 2.835 6.638 6.198 11.225 8.756 18.022 10.053 2.467.47 7.935.373 9.225-.166l.896-.374-2.054-1.015c-1.48-.732-2.738-1.638-4-2.957-1.262-1.32-2.53-3.051-4.028-5.433-1.386-2.203-2.595-3.854-3.847-5.132-2.087-2.129-4.297-3.221-7.661-4.103a9.811 9.811 0 0 1 -1.144-.356 1.242 1.242 0 0 1 -.133-.063.244.244 0 0 1 -.053-.038l-.005-.006h-.001c0-.002-.002-.003-.003-.004l-.002-.002-.002-.005v-.011l.003-.005.001-.001h.001v-.002l.001-.001a.067.067 0 0 1 .028-.012.376.376 0 0 1 .08-.008c2.388-.052 6.846-1.977 8.944-3.864 2.001-1.8 3.043-3.379 5.507-8.344 1.957-3.945 2.458-4.734 4.008-6.305 1.09-1.105 2.305-2.04 3.16-2.43.382-.173.73-.35.982-.496.188-.109.323-.2.379-.258l.012-.015.01-.012a.042.042 0 0 0 .006-.019v-.001c0-.012 0-.023-.005-.034a.16.16 0 0 0 -.037-.064.35.35 0 0 0 -.074-.058c-.891-.555-6.691-.468-9.383.213-5.228 1.322-8.078 3.044-13.197 7.974-2.006 1.93-4.249 3.835-4.985 4.231-3.797 2.046-9.346 1.961-13.627-.208-3.408-1.727-6.22-5.555-6.848-9.388a8.404 8.404 0 0 1 -.09-.76c-.241-1.987.046-3.178 1.341-5.635.99-1.878 2.463-3.969 2.62-3.816 5.216-6.113 13.702-10.602 13.702-10.602 2.793-1.416 6.338-2.627 10.634-3.632l.268-.083c1.6-.488 3.813-.875 6.148-1.178 2.25-.373 3.442-.502 3.476-.39 3.364-.324 6.473-.493 7.847-.559.194-.05.444-.056.807-.056h1.049c1.92-.121 5.645-.466 5.646-.467l2.315-.178c1.274-.098 2.97-.286 3.77-.418l.01-.002c-7.085-3.806-9.698-10.808-11.948-11.042-1.28-.133.562-2.98.307-3.513-1.334-2.78 1.768-17.65 7.389-17.161h.001l.001.001v.002c.007.052-.44.57-1.023 1.187-4.527 5.24-5.682 9.995-3.51 16.792 2.099 6.723 6.2 9.12 6.371 9.594 1.672 1.408 3.804 2.67 5.628 3.602 2.566-.437 4.09-.72 5.687-1.048 3.537-.727 10.313-2.776 13.267-4.011 1.407-.589 3.75-1.54 5.205-2.114 2.288-.901 2.843-1.248 4.101-2.564 2.882-3.014 5.01-7.293 5.502-10.034l.056-.32-2.984.124 2.01-2.42a154.002 154.002 0 0 0 -6.719-3.738c-1.973-1.024-4.176-2.192-4.894-2.596l-2.268-1.279c-6.184-3.494-9.07-4.78-14.78-6.58-4.212-1.33-10.055-2.431-14.816-2.792zm30.746 13.83a3.121 3.121 0 0 1 3.12 3.12c0 1.97-1.672 3.12-3.12 3.12-3.738 0-4.216-5.442-.629-6.177a3.1 3.1 0 0 1 .629-.064z" fill="#00bfff" stroke="#add8e6" stroke-linejoin="round"/><path d="m177.66 109.806a1.576 1.576 0 1 0 .002 3.151 1.576 1.576 0 0 0 -.003-3.151z" stroke-width=".504778"/><g stroke-width="1.248"><path d="m204.736 165.775-10.939.044-10.938.044-.044 14.8-.044 14.798h8.925v-10.638h5.558c4.292 0 5.575-.049 5.633-.214.041-.118.04-1.701-.003-3.518l-.077-3.303h-11.112v-4.804h13.04v-3.604z" fill="#fd7e14" stroke="#fff8dc"/><path d="m178.312 165.772-4.414.046-4.415.045-.83 1.545a978.42 978.42 0 0 1 -6.092 11.033c-.707 1.256-1.342 2.22-1.411 2.145-.16-.177-4.84-8.582-6.717-12.063l-1.433-2.66h-8.747l-.044 14.8-.044 14.798h8.753l.002-7.249.003-7.25.443.773c.547.953 3.704 6.872 4.508 8.45l.59 1.158h5.568l2.713-5.142c1.493-2.828 2.74-5.116 2.771-5.084.032.032.054 3.272.05 7.201l-.008 7.143h8.755v-14.844z" fill="#20c997" stroke="#b0e0e6"/><path d="m220.149 165.144c-4.578.243-8.472 2.187-11.189 5.623-2.19 2.768-3.167 5.444-3.318 9.08-.104 2.496.183 4.28 1.021 6.349.702 1.73 2.479 4.391 3.645 5.457 2.126 1.943 4.881 3.38 7.468 3.897 1.719.343 4.958.307 6.811-.076 1.73-.356 4.201-1.445 5.629-2.478 1.187-.86 3.348-3.035 3.336-3.359-.005-.147-.516-.691-1.135-1.21a123.73 123.73 0 0 1 -2.52-2.2c-2.054-1.85-1.95-1.833-3.234-.512-1.532 1.577-2.935 2.24-4.936 2.336-1.775.085-2.955-.202-4.193-1.022-3.009-1.993-4.09-7.193-2.214-10.641.596-1.096 2.058-2.461 3.19-2.98 1.845-.844 4.617-.68 6.429.382.433.254 1.218.91 1.745 1.457.527.548 1.021.996 1.1.997.077 0 1.345-1.023 2.817-2.273s2.749-2.322 2.837-2.381c.303-.203-.082-.866-1.177-2.027-2.585-2.74-5.927-4.201-10.11-4.419a19.065 19.065 0 0 0 -2.002 0z" fill="#6f42c1" stroke="#e6e6fa"/></g></g></svg>